<?xml version="1.0" standalone="no"?>
<!DOCTYPE svg PUBLIC "-//W3C//DTD SVG 20010904//EN"
 "http://www.w3.org/TR/2001/REC-SVG-20010904/DTD/svg10.dtd">
<svg version="1.0" xmlns="http://www.w3.org/2000/svg"
 width="800.000000pt" height="600.000000pt" viewBox="0 0 800.000000 600.000000"
 preserveAspectRatio="xMidYMid meet">

<g transform="translate(0.000000,600.000000) scale(0.100000,-0.100000)"
fill="#000000" stroke="none">
<path d="M5625 5822 c-78 -7 -96 -15 -150 -64 -84 -76 -98 -112 -98 -233 1
-99 1 -100 -14 -62 -18 45 -29 47 -38 8 -10 -47 4 -97 40 -138 42 -50 55 -97
55 -209 l0 -92 -38 -34 c-62 -56 -228 -148 -304 -169 -88 -25 -115 -39 -154
-81 -78 -82 -95 -169 -74 -377 l13 -126 -32 -155 c-26 -126 -42 -177 -86 -270
-61 -133 -89 -239 -105 -400 -15 -152 -56 -374 -79 -425 -11 -25 -38 -56 -74
-84 -31 -24 -70 -64 -87 -90 -16 -25 -46 -68 -65 -96 -18 -27 -34 -58 -34 -67
-1 -28 41 -22 84 12 21 17 40 30 42 30 2 0 2 -46 -1 -102 -2 -57 -2 -87 0 -68
7 51 20 200 18 200 -1 0 -24 -18 -50 -40 -48 -40 -84 -51 -84 -27 0 6 18 35
40 64 21 29 46 65 54 81 9 17 30 43 48 59 136 124 129 110 168 333 11 63 26
176 34 251 18 158 51 276 105 369 32 54 44 94 76 242 41 194 43 220 25 323
-39 227 28 377 188 424 80 24 86 25 77 10 -4 -6 15 5 41 24 27 19 81 53 120
75 38 22 88 58 110 79 l39 38 -7 130 c-4 72 -12 164 -18 207 -15 107 -16 226
-1 270 13 39 106 133 148 149 14 5 46 9 73 9 27 0 59 -4 73 -9 42 -16 135
-110 148 -149 15 -44 15 -152 -1 -271 -6 -47 -12 -138 -13 -202 -1 -65 -5
-115 -9 -112 -5 2 -8 0 -8 -6 0 -21 115 -110 208 -161 53 -29 106 -60 116 -69
13 -10 17 -11 11 -2 -6 10 -1 12 26 6 80 -17 157 -85 184 -163 16 -44 39 -346
28 -364 -2 -4 1 -25 6 -45 6 -21 27 -112 48 -203 24 -106 46 -179 62 -205 63
-103 103 -239 121 -420 13 -126 43 -312 65 -394 14 -55 39 -87 116 -147 29
-22 159 -205 159 -223 0 -22 -34 -10 -79 26 -25 21 -50 42 -54 48 -6 6 -7 4
-4 -5 10 -34 30 -308 23 -333 -4 -18 -13 -27 -26 -27 -13 0 -20 -7 -20 -19 0
-27 -17 -36 -37 -20 -8 7 -25 13 -37 14 -16 0 -24 10 -35 44 -8 26 -16 38 -21
31 -12 -20 -37 15 -50 72 -7 29 -28 89 -48 133 -32 72 -36 92 -42 195 -5 108
-9 121 -49 210 -58 128 -187 439 -216 521 -13 37 -26 102 -30 145 -4 44 -25
150 -46 236 -25 102 -39 183 -40 230 l-2 73 -8 -95 c-5 -52 -16 -131 -25 -175
-37 -184 -37 -187 -25 -265 17 -115 12 -238 -10 -224 -5 3 -4 -7 1 -22 20 -50
62 -388 70 -559 l8 -170 -3 170 c-2 117 -12 230 -30 360 -30 209 -29 194 -19
283 4 36 2 99 -6 152 -11 86 -10 98 16 234 l29 143 37 -146 c21 -80 38 -166
38 -191 1 -75 26 -169 75 -284 25 -60 64 -152 85 -205 21 -53 61 -147 88 -208
47 -109 49 -117 50 -207 0 -79 4 -103 27 -157 15 -35 36 -91 47 -124 11 -33
25 -76 32 -95 6 -19 21 -39 32 -44 12 -5 26 -22 32 -38 5 -15 19 -31 29 -34
10 -3 28 -11 40 -16 25 -12 53 3 53 28 0 8 7 14 15 14 33 0 39 44 27 192 -7
77 -11 143 -9 145 2 2 21 -10 42 -27 39 -31 79 -39 88 -17 2 6 -13 37 -34 67
-21 30 -52 76 -69 101 -16 25 -57 67 -89 94 -66 52 -81 81 -105 200 -17 82
-42 261 -51 360 -10 110 -42 220 -100 345 -77 165 -123 375 -131 596 -7 195
-25 270 -83 335 -40 45 -74 64 -166 93 -72 22 -201 94 -256 144 -42 38 -48 48
-54 97 -12 92 7 192 49 255 36 54 44 94 30 148 -9 31 -22 27 -32 -10 -7 -26
-9 -13 -9 57 0 110 -17 149 -97 222 -56 51 -104 71 -161 65z m295 -383 c0 -26
-8 -53 -25 -77 -14 -20 -25 -32 -25 -26 0 5 7 19 15 30 8 10 14 28 14 39 l0
20 -9 -20 c-8 -18 -9 -18 -9 -2 -1 10 5 20 13 23 8 3 11 15 8 30 -2 14 0 24 7
24 6 0 11 -17 11 -41z m-567 -14 c2 -25 12 -54 22 -65 9 -10 15 -24 14 -29 -2
-6 -15 5 -27 24 -25 36 -42 115 -25 115 6 0 13 -20 16 -45z m27 -40 c0 -5 -5
-3 -10 5 -5 8 -10 20 -10 25 0 6 5 3 10 -5 5 -8 10 -19 10 -25z"/>
<path d="M2045 5804 c-57 -29 -114 -79 -136 -119 -19 -32 -23 -54 -22 -111 1
-67 -1 -71 -19 -66 -24 6 -38 -13 -38 -51 0 -39 22 -87 59 -126 31 -34 33 -38
38 -142 3 -58 3 -118 0 -131 -13 -52 -222 -181 -360 -222 -102 -31 -152 -73
-193 -159 -28 -60 -31 -144 -13 -317 11 -103 11 -108 -24 -267 -27 -125 -46
-184 -80 -256 -63 -131 -85 -211 -103 -367 -16 -147 -36 -274 -61 -389 -17
-79 -48 -124 -117 -172 -19 -13 -42 -37 -52 -54 -16 -27 -14 -26 22 10 21 22
60 58 86 80 36 32 49 52 62 95 22 77 53 266 66 401 15 148 49 278 100 378 43
87 66 164 101 336 20 100 21 119 10 210 -25 218 -11 300 66 385 39 44 55 53
127 75 45 14 89 25 98 25 9 0 18 4 20 8 2 5 43 32 92 62 49 29 103 66 121 81
18 16 35 26 39 22 3 -3 6 45 6 107 l0 113 36 -54 c43 -66 86 -97 145 -105 66
-9 129 21 171 81 60 87 58 85 51 28 -3 -28 -2 -75 2 -105 6 -49 11 -57 60 -97
76 -62 215 -138 279 -151 59 -12 121 -51 154 -97 45 -63 53 -102 63 -288 12
-250 63 -485 137 -631 57 -114 81 -204 102 -392 23 -198 55 -372 79 -427 11
-25 39 -56 74 -84 38 -29 78 -75 122 -141 36 -53 65 -102 65 -109 0 -21 -28
-11 -80 30 -28 22 -52 39 -53 37 -1 -1 3 -50 10 -108 l12 -105 -4 93 c-3 50
-3 92 0 92 2 0 24 -14 49 -31 74 -53 100 -23 46 53 -17 24 -44 64 -60 89 -17
25 -61 74 -100 108 -57 51 -72 71 -84 111 -20 67 -53 266 -71 430 -16 154 -40
241 -97 353 -73 147 -124 382 -136 628 -8 156 -13 192 -32 236 -29 67 -103
137 -161 153 -108 30 -241 99 -316 166 l-48 42 2 122 c1 90 5 126 16 138 69
80 88 187 37 204 -11 3 -15 21 -16 70 -1 78 -26 128 -87 175 -70 52 -97 63
-167 63 -39 0 -77 -6 -95 -16z m229 -48 c81 -56 99 -91 98 -185 0 -42 -6 -106
-11 -141 -6 -36 -11 -82 -11 -103 0 -76 -89 -205 -156 -227 -124 -41 -243 73
-265 251 -36 303 -32 327 65 397 64 46 83 52 158 49 58 -2 73 -7 122 -41z
m-397 -264 c7 -4 17 -37 22 -72 5 -36 12 -73 16 -82 13 -32 -12 -19 -38 20
-31 44 -41 83 -33 117 7 26 13 30 33 17z m550 -33 c3 -34 -43 -139 -61 -139
-4 0 -5 8 -1 18 4 9 11 46 16 81 5 35 12 68 15 73 12 19 29 0 31 -33z"/>
<path d="M1972 5538 c-8 -10 4 -13 54 -14 62 -1 81 7 48 20 -27 11 -91 6 -102
-6z"/>
<path d="M2197 5543 c-16 -15 -3 -19 58 -19 55 1 63 3 48 14 -18 13 -95 17
-106 5z"/>
<path d="M2010 5485 c0 -21 30 -31 40 -14 11 17 3 29 -21 29 -10 0 -19 -7 -19
-15z"/>
<path d="M2222 5483 c5 -26 34 -28 41 -3 4 16 0 20 -20 20 -18 0 -24 -5 -21
-17z"/>
<path d="M2165 5340 c3 -5 8 -10 11 -10 2 0 4 5 4 10 0 6 -5 10 -11 10 -5 0
-7 -4 -4 -10z"/>
<path d="M2128 5243 c6 -2 18 -2 25 0 6 3 1 5 -13 5 -14 0 -19 -2 -12 -5z"/>
<path d="M1718 4853 c7 -3 16 -2 19 1 4 3 -2 6 -13 5 -11 0 -14 -3 -6 -6z"/>
<path d="M1773 4853 c9 -2 25 -2 35 0 9 3 1 5 -18 5 -19 0 -27 -2 -17 -5z"/>
<path d="M2493 4853 c9 -2 23 -2 30 0 6 3 -1 5 -18 5 -16 0 -22 -2 -12 -5z"/>
<path d="M5645 4320 c0 -239 1 -337 2 -217 2 119 2 315 0 435 -1 119 -2 21 -2
-218z"/>
<path d="M5913 4590 c0 -25 2 -35 4 -22 2 12 2 32 0 45 -2 12 -4 2 -4 -23z"/>
<path d="M5361 4584 c0 -11 3 -14 6 -6 3 7 2 16 -1 19 -3 4 -6 -2 -5 -13z"/>
<path d="M5336 4468 c-27 -132 -27 -135 -17 -118 10 17 44 190 38 196 -2 3
-12 -33 -21 -78z"/>
<path d="M5921 4523 c-2 -23 29 -167 37 -175 5 -5 1 30 -9 79 -20 92 -27 116
-28 96z"/>
<path d="M5071 4435 c0 -5 6 -30 13 -55 8 -25 15 -36 15 -25 -1 21 -27 98 -28
80z"/>
<path d="M6181 4384 c0 -11 3 -14 6 -6 3 7 2 16 -1 19 -3 4 -6 -2 -5 -13z"/>
<path d="M6171 4344 c0 -11 3 -14 6 -6 3 7 2 16 -1 19 -3 4 -6 -2 -5 -13z"/>
<path d="M1622 4176 c-7 -83 -24 -192 -42 -266 -16 -69 -30 -143 -30 -165 0
-60 -25 -162 -55 -235 -15 -36 -60 -144 -100 -240 -40 -96 -89 -213 -109 -260
-32 -75 -36 -95 -36 -171 0 -85 -21 -173 -54 -223 -7 -12 -21 -52 -31 -91 -19
-71 -30 -95 -46 -95 -5 0 -9 8 -10 18 0 9 -7 -4 -15 -29 -15 -51 -38 -77 -49
-59 -5 8 -11 6 -20 -6 -15 -22 -45 -12 -45 15 0 15 -5 19 -16 14 -37 -14 -42
51 -21 245 7 61 11 112 9 112 -2 0 -25 -18 -51 -40 -46 -39 -81 -51 -81 -29 0
6 20 40 45 76 51 73 58 89 17 41 -43 -51 -79 -112 -75 -125 8 -23 52 -14 88
18 20 18 38 29 41 26 3 -3 1 -48 -5 -101 -19 -167 -12 -236 24 -236 7 0 17 -9
20 -20 12 -39 109 -11 121 35 4 15 17 30 30 35 16 6 27 23 35 52 18 68 36 118
65 188 23 52 29 86 34 175 5 99 10 118 44 195 60 132 185 436 217 527 18 51
33 119 39 180 6 54 19 131 30 172 11 40 23 95 26 123 4 27 10 46 14 41 3 -4
17 -57 31 -118 18 -81 23 -131 20 -190 -4 -93 -5 -220 -1 -285 2 -25 -7 -110
-19 -190 -11 -80 -23 -181 -25 -225 -4 -89 -4 -90 25 150 11 94 25 187 31 208
l9 39 27 -18 27 -17 -27 29 c-51 55 -59 114 -36 269 11 75 10 88 -17 200 -18
81 -29 159 -33 238 l-5 118 49 -30 c26 -17 53 -31 58 -31 6 1 -5 10 -25 20
-20 11 -48 32 -61 48 l-25 30 -11 -142z"/>
<path d="M5102 4295 c0 -16 2 -22 5 -12 2 9 2 23 0 30 -3 6 -5 -1 -5 -18z"/>
<path d="M2642 4293 c-15 -28 -126 -83 -169 -83 -18 0 -33 -4 -33 -10 0 -15
59 -1 125 30 73 35 98 55 93 72 -3 9 -8 6 -16 -9z"/>
<path d="M6162 4285 c0 -16 2 -22 5 -12 2 9 2 23 0 30 -3 6 -5 -1 -5 -18z"/>
<path d="M2651 4167 c-1 -75 -9 -150 -28 -239 -25 -124 -25 -134 -13 -228 17
-128 9 -194 -27 -233 -24 -25 -25 -28 -6 -18 14 7 24 7 28 1 8 -12 52 -342 60
-450 4 -47 2 -206 -4 -355 -9 -221 -18 -315 -48 -515 -39 -263 -42 -314 -29
-575 10 -196 -1 -364 -40 -609 -40 -256 -43 -294 -35 -436 8 -140 24 -196 67
-231 65 -54 125 -173 78 -155 -14 5 -15 4 -4 -9 7 -8 9 -16 4 -17 -5 0 -13 -2
-19 -3 -5 0 -27 -9 -47 -19 -21 -10 -45 -16 -53 -12 -8 3 -27 1 -42 -5 -57
-21 -95 18 -133 136 -7 22 -26 66 -42 98 -28 56 -28 60 -19 140 6 45 10 105
10 132 0 28 2 113 6 190 5 109 3 156 -9 210 -52 235 -59 299 -51 470 5 106 11
163 17 159 6 -4 7 2 3 16 -42 131 -47 164 -55 330 -4 96 -15 243 -23 325 -9
83 -20 231 -25 331 -5 99 -12 186 -16 193 -16 26 -26 -4 -24 -77 l1 -77 6 65
c9 102 19 48 26 -146 4 -99 15 -255 26 -349 10 -93 19 -219 19 -280 0 -69 7
-136 17 -180 14 -56 17 -119 18 -315 0 -237 1 -249 30 -365 25 -104 29 -139
29 -260 0 -163 -9 -366 -19 -417 -5 -28 -1 -48 23 -94 16 -32 39 -90 52 -127
12 -38 32 -80 45 -95 21 -25 29 -27 87 -25 79 3 158 32 177 65 21 37 7 71 -58
143 -80 88 -91 123 -92 310 -2 124 3 184 29 345 53 335 62 506 41 770 -10 133
-10 139 30 415 33 221 43 333 52 530 13 291 9 383 -27 635 -30 204 -30 212
-19 288 5 34 3 92 -5 154 -13 94 -12 106 9 206 12 59 26 123 30 142 7 35 7 34
20 -25 7 -33 22 -91 33 -129 11 -38 24 -114 29 -167 6 -65 19 -125 38 -176 35
-95 154 -384 210 -511 35 -80 41 -103 41 -162 0 -90 15 -158 56 -250 18 -41
38 -97 45 -125 15 -64 26 -85 44 -85 8 0 21 -15 29 -34 17 -40 21 -43 73 -52
36 -5 42 -4 48 15 3 11 13 21 20 21 23 0 35 35 33 97 l-2 58 -3 -50 c-5 -81
-11 -98 -33 -92 -15 4 -20 0 -20 -14 0 -27 -30 -37 -45 -15 -9 12 -15 14 -20
6 -9 -15 -45 17 -45 41 0 10 -12 24 -27 31 -22 10 -30 26 -43 78 -9 36 -25 80
-34 99 -37 70 -56 147 -62 245 -5 86 -12 113 -42 181 -66 151 -184 440 -213
522 -18 51 -33 118 -38 175 -5 51 -24 147 -41 213 -18 66 -38 167 -45 225
l-13 105 -1 -108z"/>
<path d="M5111 4170 c-2 -86 -11 -143 -49 -325 -12 -55 -25 -137 -31 -181 -6
-52 -23 -113 -46 -170 -21 -49 -63 -152 -95 -229 -31 -77 -76 -183 -100 -235
-39 -89 -42 -102 -45 -196 -2 -83 -8 -112 -30 -165 -15 -35 -36 -91 -47 -124
-39 -117 -43 -128 -56 -133 -7 -2 -12 6 -13 20 0 14 -6 5 -14 -23 -16 -61 -24
-72 -46 -66 -10 3 -23 -1 -30 -9 -17 -21 -28 -17 -35 11 -4 16 -13 25 -25 25
-20 0 -26 17 -32 85 -3 38 -4 38 -5 -8 -2 -53 11 -87 33 -87 8 0 15 -6 15 -14
0 -25 28 -40 53 -28 12 5 30 13 40 16 10 3 24 20 30 36 6 17 17 30 24 30 19 0
40 39 58 110 9 36 22 74 29 85 37 58 59 142 62 241 3 100 4 104 63 236 33 74
76 175 95 224 19 49 48 120 66 158 39 84 70 203 70 265 0 25 11 91 25 146 14
55 28 124 31 153 4 29 10 49 14 45 4 -4 15 -46 25 -93 9 -47 21 -105 27 -130
6 -31 6 -80 -3 -159 -10 -86 -10 -127 -1 -168 9 -46 7 -78 -13 -216 -36 -239
-41 -333 -33 -642 6 -255 10 -306 48 -570 41 -285 41 -292 31 -425 -21 -266
-12 -427 44 -780 43 -274 51 -351 36 -379 -7 -11 -18 -21 -25 -21 -20 0 -71
-28 -92 -51 -18 -20 -18 -21 6 -67 14 -26 59 -81 100 -124 59 -61 83 -78 113
-84 83 -15 124 42 113 156 -12 113 -16 522 -6 595 5 39 19 113 31 165 20 84
23 124 24 345 0 191 5 267 17 320 10 43 18 135 20 240 3 96 2 146 -3 115 -4
-30 -8 -107 -8 -170 -1 -70 -8 -142 -18 -185 -14 -56 -18 -122 -18 -320 -1
-221 -4 -260 -24 -340 -36 -149 -42 -231 -35 -508 8 -369 9 -358 -21 -384 -47
-41 -90 -26 -171 59 -78 82 -114 133 -114 163 0 20 4 26 16 21 8 -3 13 -2 9 3
-3 5 8 16 25 24 29 15 38 11 23 -9 -5 -5 2 1 14 13 27 28 30 29 37 1 2 -13 3
29 1 92 -2 67 -18 205 -39 330 -56 342 -66 518 -45 780 11 134 11 138 -31 425
-38 265 -42 314 -48 570 -4 154 -4 323 0 375 8 99 42 348 57 413 5 20 5 37 1
37 -18 0 -22 98 -10 205 12 108 12 116 -13 226 -25 113 -44 227 -50 304 -2 22
-5 2 -6 -45z"/>
<path d="M1770 4211 c23 -13 97 -24 85 -13 -5 5 -30 12 -55 16 -27 4 -39 3
-30 -3z"/>
<path d="M5631 3804 c0 -11 3 -14 6 -6 3 7 2 16 -1 19 -3 4 -6 -2 -5 -13z"/>
<path d="M6341 3690 c6 -16 15 -30 19 -30 5 0 2 14 -6 30 -9 17 -17 30 -19 30
-2 0 1 -13 6 -30z"/>
<path d="M4917 3677 l-17 -32 20 24 c17 20 26 41 18 41 -2 0 -11 -15 -21 -33z"/>
<path d="M2145 3610 c-3 -5 -1 -18 4 -27 6 -10 11 -13 11 -6 0 6 3 18 6 27 7
17 -11 22 -21 6z"/>
<path d="M1622 2945 c0 -16 2 -22 5 -12 2 9 2 23 0 30 -3 6 -5 -1 -5 -18z"/>
<path d="M1635 2645 c3 -256 5 -284 45 -550 40 -274 41 -283 31 -409 -22 -263
-12 -442 41 -776 26 -163 31 -220 29 -345 -2 -188 -12 -222 -92 -310 -32 -36
-62 -77 -65 -91 -9 -35 10 -72 43 -84 16 -6 37 -15 48 -20 11 -5 36 -10 55
-11 19 0 50 -1 69 -1 45 -2 72 30 101 119 13 37 36 94 52 126 27 54 28 63 19
110 -15 75 -24 482 -13 542 6 28 20 93 33 145 21 86 24 118 24 345 0 201 4
264 18 320 10 43 17 110 17 176 0 58 9 177 20 265 13 101 19 210 18 299 l-1
140 -8 -185 c-4 -102 -12 -212 -18 -245 -7 -33 -16 -145 -21 -250 -8 -182 -13
-213 -55 -345 -4 -14 -3 -20 3 -16 6 4 12 -53 17 -158 8 -171 -7 -311 -43
-416 -21 -59 -24 -476 -5 -593 13 -77 13 -78 -16 -135 -15 -31 -34 -75 -41
-97 -37 -117 -77 -157 -135 -135 -14 5 -32 7 -41 3 -8 -3 -25 -1 -37 5 -30 14
-60 25 -72 26 -5 1 -9 10 -7 20 2 11 -1 15 -7 11 -7 -4 -11 4 -11 19 0 23 54
101 98 140 45 39 61 113 63 278 2 129 -3 184 -29 348 -54 341 -63 514 -41 775
11 128 10 134 -31 415 -38 252 -43 316 -50 550 l-8 265 3 -270z"/>
<path d="M5632 2787 c-8 -18 -28 -35 -54 -47 -24 -11 -36 -20 -28 -20 8 0 27
7 43 14 l27 15 -6 -207 c-3 -114 -10 -237 -15 -274 -5 -37 -8 -79 -8 -95 3
-66 28 152 28 253 1 161 13 328 22 312 4 -8 11 -92 14 -188 4 -96 15 -252 26
-346 10 -94 19 -222 19 -285 0 -73 7 -139 17 -184 14 -56 18 -119 18 -315 0
-238 1 -248 30 -365 l30 -120 -2 -290 c-1 -159 -3 -322 -5 -361 -2 -53 2 -77
15 -97 49 -75 150 -32 262 113 64 83 73 105 50 130 -20 23 -71 50 -92 50 -7 0
-19 11 -25 26 -13 28 -9 66 42 394 51 329 60 513 39 767 -10 127 -10 134 31
414 34 230 42 318 45 464 l3 180 -8 -180 c-6 -118 -23 -277 -50 -460 l-41
-280 12 -160 c15 -205 6 -422 -26 -640 -14 -93 -34 -228 -45 -300 -27 -179
-26 -209 5 -229 14 -9 25 -14 25 -11 0 2 19 -6 43 -19 55 -32 53 -50 -21 -146
-93 -120 -184 -168 -231 -121 -24 24 -35 102 -23 161 5 25 10 159 11 298 1
197 -2 268 -14 325 -53 242 -56 273 -49 477 6 169 4 202 -11 250 -11 37 -19
112 -25 235 -4 99 -15 250 -24 335 -13 129 -35 479 -30 488 0 1 14 -4 30 -13
16 -8 38 -15 49 -14 12 0 5 5 -18 13 -47 17 -65 32 -70 59 -3 21 -4 20 -15 -6z"/>
<path d="M5508 2713 c7 -3 16 -2 19 1 4 3 -2 6 -13 5 -11 0 -14 -3 -6 -6z"/>
<path d="M4542 2460 c0 -14 2 -19 5 -12 2 6 2 18 0 25 -3 6 -5 1 -5 -13z"/>
<path d="M6732 2440 c0 -14 2 -19 5 -12 2 6 2 18 0 25 -3 6 -5 1 -5 -13z"/>
<path d="M981 2414 c0 -11 3 -14 6 -6 3 7 2 16 -1 19 -3 4 -6 -2 -5 -13z"/>
<path d="M1041 2404 c0 -11 3 -14 6 -6 3 7 2 16 -1 19 -3 4 -6 -2 -5 -13z"/>
<path d="M2540 1940 c-6 -11 -8 -20 -6 -20 3 0 10 9 16 20 6 11 8 20 6 20 -3
0 -10 -9 -16 -20z"/>
<path d="M2502 1860 c0 -14 2 -19 5 -12 2 6 2 18 0 25 -3 6 -5 1 -5 -13z"/>
<path d="M5273 1720 c0 -25 2 -35 4 -22 2 12 2 32 0 45 -2 12 -4 2 -4 -23z"/>
<path d="M1926 1735 c-3 -8 -1 -15 4 -15 6 0 10 7 10 15 0 8 -2 15 -4 15 -2 0
-6 -7 -10 -15z"/>
<path d="M2361 1724 c0 -11 3 -14 6 -6 3 7 2 16 -1 19 -3 4 -6 -2 -5 -13z"/>
<path d="M5420 1653 c8 -3 21 -12 28 -21 11 -14 12 -14 12 4 0 14 -7 20 -27
21 -16 1 -21 -1 -13 -4z"/>
<path d="M5848 1653 c7 -3 16 -2 19 1 4 3 -2 6 -13 5 -11 0 -14 -3 -6 -6z"/>
<path d="M5821 1634 c0 -11 3 -14 6 -6 3 7 2 16 -1 19 -3 4 -6 -2 -5 -13z"/>
<path d="M2001 1504 c0 -11 3 -14 6 -6 3 7 2 16 -1 19 -3 4 -6 -2 -5 -13z"/>
<path d="M2301 1434 c0 -11 3 -14 6 -6 3 7 2 16 -1 19 -3 4 -6 -2 -5 -13z"/>
<path d="M5351 494 c0 -11 3 -14 6 -6 3 7 2 16 -1 19 -3 4 -6 -2 -5 -13z"/>
</g>
</svg>
